# AST/ASF file generated using VICON BodyLanguage
# -----------------------------------------------
:version 1.10
:name VICON
:units
  mass 1.0
  length 0.45
  angle deg
:documentation
   .ast/.asf automatically generated from VICON data using
   VICON BodyBuilder and BodyLanguage model FoxedUp or BRILLIANT.MOD
:root
   order TX TY TZ RX RY RZ
   axis XYZ
   position 0 0 0  
   orientation 0 0 0 
:bonedata
  begin
     id 1 
     name lhipjoint
     direction 0.575328 -0.747301 0.332475 
     length 2.40933 
     axis 0 0 0  XYZ
  end
  begin
     id 2 
     name lfemur
     direction 0.34202 -0.939693 0  
     length 7.31453  
     axis 0 0 20  XYZ
    dof rx ry rz
    limits (-160.0 20.0)
           (-70.0 70.0)
           (-60.0 70.0)
  end
  begin
     id 3 
     name ltibia
     direction 0.34202 -0.939693 0   
     length 7.82185   
     axis 0 0 20   XYZ
    dof rx
    limits (-10.0 170.0)
  end
  begin
     id 4 
     name lfoot
     direction 0.0795993 -0.218697 0.972541   
     length 2.19173   
     axis -90 7.62852e-016 20   XYZ
    dof rx rz
    limits (-45.0 90.0)
           (-70.0 20.0)
  end
  begin
     id 5 
     name ltoes
     direction 1.53537e-011 -4.21894e-011 1   
     length 1.10023   
     axis -90 7.62852e-016 20   XYZ
    dof rx
    limits (-90.0 20.0)
  end
  begin
     id 6 
     name rhipjoint
     direction -0.513884 -0.783789 0.348708   
     length 2.29716  
     axis 0 0 0  XYZ 
  end
  begin
     id 7 
     name rfemur
     direction -0.34202 -0.939693 0   
     length 7.59573   
     axis 0 0 -20   XYZ
    dof rx ry rz
    limits (-160.0 20.0)
           (-70.0 70.0)
           (-70.0 60.0)
  end
  begin
     id 8 
     name rtibia
     direction -0.34202 -0.939693 0   
     length 7.66402   
     axis 0 0 -20   XYZ
    dof rx
    limits (-10.0 170.0)
 end
 begin
     id 9 
     name rfoot
     direction -0.137793 -0.378584 0.915253   
     length 2.27056  
     axis -90 -7.62852e-016 -20   XYZ
    dof rx rz
    limits (-45.0 90.0)
           (-20.0 70.0)
  end
  begin
     id 10 
     name rtoes
     direction -1.53493e-011 -4.22159e-011 1   
     length 1.11766   
     axis -90 -7.62852e-016 -20   XYZ
    dof rx
    limits (-90.0 20.0)
  end
  begin
     id 11 
     name lowerback
     direction -0.00732775 0.998356 -0.05685   
     length 2.16513   
     axis 0 0 0   XYZ
    dof rx ry rz
    limits (-20.0 45.0)
           (-30.0 30.0)
           (-30.0 30.0)
  end
  begin
     id 12 
     name upperback
     direction 0.0218081 0.999627 -0.0164647   
     length 2.16755   
     axis 0 0 0   XYZ
    dof rx ry rz
    limits (-20.0 45.0)
           (-30.0 30.0)
           (-30.0 30.0)
  end
  begin
     id 13 
     name thorax
     direction 0.02365 0.999661 0.0108914   
     length 2.16932   
     axis 0 0 0   XYZ
    dof rx ry rz
    limits (-20.0 45.0)
           (-30.0 30.0)
           (-30.0 30.0)
  end
  begin
     id 14 
     name lowerneck
     direction -0.0523929 0.978385 0.200044   
     length 1.63877   
     axis 0 0 0   XYZ
    dof rx ry rz
    limits (-20.0 45.0)
           (-30.0 30.0)
           (-30.0 30.0)
  end
  begin
     id 15 
     name upperneck
     direction 0.0448674 0.981321 -0.187074   
     length 1.69014   
     axis 0 0 0   XYZ
    dof rx ry rz
    limits (-20.0 45.0)
           (-30.0 30.0)
           (-30.0 30.0)
  end
  begin
     id 16
     name head
     direction 0.0199089 0.996118 -0.0857429  
     length 1.70094  
     axis 0 0 0   XYZ
    dof rx ry rz
    limits (-20.0 45.0)
           (-30.0 30.0)
           (-30.0 30.0)
  end
  begin
     id 17 
     name lclavicle
     direction 0.940366 0.30191 -0.156722  
     length 3.37521  
     axis 0 0 0   XYZ
    dof ry rz
    limits (-20.0 10.0)
           (0.0 20.0)
  end
  begin
     id 18 
     name lhumerus
     direction 1 -4.4897e-011 -1.7911e-027   
     length 5.25287   
     axis 180 -30 -90   XYZ
    dof rx ry rz
    limits (-60.0 90.0)
           (-90.0 90.0)
           (-90.0 90.0)
  end
  begin
     id 19
     name lradius
     direction 1 -4.48951e-011 1.04424e-027   
     length 3.51014   
     axis 180 -30 -90   XYZ
    dof rx
    limits (-10.0 170.0)
  end
  begin
     id 20
     name lwrist
     direction 1 -4.48997e-011 -9.5942e-028   
     length 1.75507   
     axis 8.48502e-016 90 90   XYZ
    dof ry
    limits (-180.0 0.0)
 end
  begin
     id 21 
     name lhand
     direction 1 -4.48831e-011 -1.90777e-027   
     length 0.706179   
     axis 1.22306e-015 90 90   XYZ
    dof rx rz
    limits (-90.0 90.0)
           (-45.0 45.0)
  end
  begin
     id 22 
     name lfingers
     direction 1 -4.49108e-011 -3.85244e-027   
     length 0.569339   
     axis 2.44611e-015 90 90   XYZ
    dof rx
    limits (0.0 90.0)
  end
  begin
     id 23
     name lthumb
     direction 0.707107 -6.34953e-011 0.707107   
     length 0.817461   
     axis -90 45 -1.62303e-014   XYZ
    dof rx rz
    limits (-45.0 45.0)
           (-45.0 45.0)
  end
  begin
     id 24 
     name rclavicle
     direction -0.905329 0.382405 -0.184787   
     length 3.30787  
     axis 0 0 0   XYZ 
    dof ry rz
    limits (-10.0 20.0)
           (-20.0 0.0)
  end
  begin
     id 25 
     name rhumerus
     direction -1 -4.48953e-011 -9.15316e-029  
     length 5.28721   
     axis 180 30 90   XYZ
    dof rx ry rz
    limits (-90.0 60.0)
           (-90.0 90.0)
           (-90.0 90.0)
  end
  begin
     id 26 
     name rradius
     direction -1 -4.48987e-011 9.37824e-028   
     length 3.50544   
     axis 180 30 90   XYZ
    dof rx
    limits (-10.0 170.0)
  end
  begin
     id 27 
     name rwrist
     direction -1 -4.48967e-011 -9.58414e-028   
     length 1.75272   
     axis 8.48502e-016 -90 -90   XYZ
    dof ry
    limits (-180.0 0.0)
  end
  begin
     id 28
     name rhand
     direction -1 -4.48904e-011 -1.91266e-027   
     length 0.884996   
     axis 1.22306e-015 -90 -90   XYZ
    dof rx rz
    limits (-90.0 90.0)
           (-45.0 45.0)
  end
  begin
     id 29
     name rfingers
     direction -1 -4.4909e-011 -3.85015e-027   
     length 0.713507   
     axis 2.44611e-015 -90 -90   XYZ
    dof rx
    limits (0.0 90.0)
  end
  begin
     id 30
     name rthumb
     direction -0.707107 -6.34853e-011 0.707107   
     length 1.02446   
     axis -90 -45 1.62303e-014   XYZ
    dof rx rz
    limits (-45.0 45.0)
           (-45.0 45.0)
  end
:hierarchy
  begin
    root lhipjoint rhipjoint lowerback
    lhipjoint lfemur
    lfemur ltibia
    ltibia lfoot
    lfoot ltoes
    rhipjoint rfemur
    rfemur rtibia
    rtibia rfoot
    rfoot rtoes
    lowerback upperback
    upperback thorax
    thorax lowerneck lclavicle rclavicle
    lowerneck upperneck
    upperneck head
    lclavicle lhumerus
    lhumerus lradius
    lradius lwrist
    lwrist lhand lthumb
    lhand lfingers
    rclavicle rhumerus
    rhumerus rradius
    rradius rwrist
    rwrist rhand rthumb
    rhand rfingers
  end

#!OML:ASF F:\twosubjects\two\Thursday\Session 1\justin.ASF
:FULLY-SPECIFIED
:DEGREES
170
root 18.7069 17.0845 1.57085 6.73902 -44.8931 4.21347
lowerback 21.2929 2.38727 -4.14687
upperback 6.91061 2.12825 1.60125
thorax -4.5693 0.924948 3.56531
lowerneck -15.6082 -11.326 -16.9309
upperneck -2.54835 -12.7133 13.8408
head 3.68219 -5.84069 5.82982
rclavicle -5.00937e-014 3.97569e-015
rhumerus -24.7102 0.124689 -78.2098
rradius 52.4284
rwrist -2.31492
rhand -16.1598 20.8838
rfingers 7.12502
rthumb 10.046 -8.85641
lclavicle -5.00937e-014 3.97569e-015
lhumerus -32.5923 -11.2091 91.0072
lradius 64.5995
lwrist -6.87717
lhand -8.64562 35.94
lfingers 7.12502
lthumb 17.2875 65.1911
rfemur -44.0452 -16.5327 20.1379
rtibia 71.2543
rfoot -19.2778 10.3973
rtoes -19.93
lfemur -39.5347 14.4577 -18.2095
ltibia 50.6297
lfoot -17.8851 -7.71703
ltoes -23.2752
171
root 18.736 17.0864 1.54948 7.09694 -44.3566 3.5661
lowerback 21.5865 2.42991 -4.28406
upperback 6.87837 2.18036 2.18986
thorax -4.78471 0.951549 4.26374
lowerneck -15.2188 -11.4589 -17.5279
upperneck -2.80137 -12.8242 13.6932
head 3.58208 -5.91125 5.87854
rclavicle -9.54166e-015 3.97569e-015
rhumerus -25.2265 1.23785 -78.1072
rradius 52.9846
rwrist -2.8257
rhand -16.1205 20.4128
rfingers 7.12502
rthumb 10.0839 -9.32556
lclavicle -9.54166e-015 3.97569e-015
lhumerus -32.7618 -10.7313 92.0105
lradius 64.7106
lwrist -7.1554
lhand -8.71888 36.1947
lfingers 7.12502
lthumb 17.217 65.452
rfemur -43.0769 -16.0175 21.1339
rtibia 69.9079
rfoot -20.1461 9.06057
rtoes -16.7064
lfemur -40.0165 14.9816 -17.8129
ltibia 51.0375
lfoot -17.6197 -8.98233
ltoes -24.0171
172
root 18.7644 17.0901 1.51744 6.99387 -43.7732 3.55946
lowerback 21.8211 2.32968 -4.12728
upperback 6.99433 2.06242 2.06496
thorax -4.75728 0.890296 4.06647
lowerneck -14.6393 -11.5906 -17.5782
upperneck -3.5933 -13.0661 14.1
head 3.33105 -6.04185 6.02187
rclavicle 2.54444e-014 6.12257e-014
rhumerus -25.2986 1.49623 -78.7856
rradius 53.0958
rwrist -2.71608
rhand -16.0002 20.1713
rfingers 7.12502
rthumb 10.2 -9.56139
lclavicle 2.54444e-014 6.12257e-014
lhumerus -32.7468 -10.9921 92.1188
lradius 64.9026
lwrist -7.62769
lhand -9.42768 36.59
lfingers 7.12502
lthumb 16.5347 65.9055
rfemur -42.0883 -15.2991 21.4123
rtibia 68.4966
rfoot -21.3866 6.06726
rtoes -18.3085
lfemur -40.5863 15.299 -17.8368
ltibia 51.3474
lfoot -16.4161 -10.8559
ltoes -21.3731
173
root 18.7933 17.0964 1.48028 6.52869 -43.502 3.82452
lowerback 22.4389 2.70796 -5.07081
upperback 7.0448 2.35564 2.62126
thorax -5.09712 1.03293 5.13189
lowerneck -13.9061 -11.7449 -18.1907
upperneck -4.51126 -13.2436 14.0064
head 2.9952 -6.15378 6.114
rclavicle -7.63333e-014 2.94201e-014
rhumerus -25.46 1.99702 -78.2377
rradius 53.2423
rwrist -2.53032
rhand -15.7152 20.2614
rfingers 7.12502
rthumb 10.4749 -9.4576
lclavicle -7.63333e-014 2.94201e-014
lhumerus -32.8474 -10.6972 93.373
lradius 64.9813
lwrist -8.45282
lhand -10.0215 37.0064
lfingers 7.12502
lthumb 15.963 66.3686
rfemur -40.893 -13.9384 21.0908
rtibia 67.1775
rfoot -22.464 3.10228
rtoes -17.1109
lfemur -40.9533 15.8768 -18.0207
ltibia 51.7245
lfoot -14.5323 -12.815
ltoes -16.5181
174
root 18.8295 17.1094 1.45233 5.97626 -43.5113 3.98105
lowerback 22.9893 2.52526 -4.07506
upperback 7.28768 2.23479 1.69164
thorax -5.03152 0.966958 3.57037
lowerneck -13.3432 -11.7564 -17.6357
upperneck -5.41653 -13.4144 14.6636
head 2.69682 -6.25583 6.26086
rclavicle -2.82274e-014 -2.54444e-014
rhumerus -25.1701 1.2523 -79.8414
rradius 52.9269
rwrist -2.17581
rhand -15.4783 20.6473
rfingers 7.12502
rthumb 10.7034 -9.06006
lclavicle -2.82274e-014 -2.54444e-014
lhumerus -32.5449 -11.0782 92.228
lradius 65.205
lwrist -8.75443
lhand -9.8371 37.7185
lfingers 7.12502
lthumb 16.1405 67.0664
rfemur -39.6344 -12.473 20.7237
rtibia 65.9729
rfoot -23.2372 1.55228
rtoes -13.9143
lfemur -41.005 16.499 -18.0378
ltibia 52.1216
lfoot -13.3508 -14.2666
ltoes -14.4486
175
root 18.8613 17.1198 1.43576 5.94756 -42.6585 3.99443
lowerback 23.1121 2.55637 -4.29062
upperback 7.3461 2.25775 2.18937
thorax -5.05694 0.974395 4.22944
lowerneck -12.6469 -11.9711 -18.3751
upperneck -6.22069 -13.6708 14.7097
head 2.43735 -6.39748 6.40615
rclavicle -7.27552e-014 6.20208e-014
rhumerus -24.8761 1.38241 -79.3569
rradius 52.4416
rwrist -2.33346
rhand -15.2212 20.6407
rfingers 7.12502
rthumb 10.9514 -9.0537
lclavicle -7.27552e-014 6.20208e-014
lhumerus -32.3715 -10.5039 93.1492
lradius 65.365
lwrist -9.32334
lhand -10.19 38.5957
lfingers 7.12502
lthumb 15.8007 67.9708
rfemur -38.9915 -12.0028 20.7253
rtibia 64.938
rfoot -24.157 0.239261
rtoes -14.1746
lfemur -41.6101 16.0972 -17.9012
ltibia 52.5037
lfoot -13.4068 -15.4411
ltoes -17.3149
